<svg width="30" height="30" viewBox="0 0 30 30" fill="none" xmlns="http://www.w3.org/2000/svg">
<path d="M25.4448 4.58333H22.9165V2.08333C22.9165 1.62333 22.5432 1.25 22.0832 1.25C21.6232 1.25 21.2498 1.62333 21.2498 2.08333V4.58333H8.33317V2.08333C8.33317 1.62333 7.95984 1.25 7.49984 1.25C7.03984 1.25 6.6665 1.62333 6.6665 2.08333V4.58333H4.55484C2.95984 4.58333 1.6665 5.87667 1.6665 7.47167V25.8617C1.6665 27.4567 2.95984 28.75 4.55484 28.75H25.4448C27.0398 28.75 28.3332 27.4567 28.3332 25.8617V7.47167C28.3332 5.87667 27.0398 4.58333 25.4448 4.58333ZM4.55484 6.25H6.6665V8.33333C6.6665 8.79333 7.03984 9.16667 7.49984 9.16667C7.95984 9.16667 8.33317 8.79375 8.33317 8.33333V6.25H21.2498V8.33333C21.2498 8.79333 21.6232 9.16667 22.0832 9.16667C22.5432 9.16667 22.9165 8.79375 22.9165 8.33333V6.25H25.4448C26.1198 6.25 26.6665 6.79708 26.6665 7.47167V11.6667H3.33317V7.47167C3.33317 6.79708 3.88025 6.25 4.55484 6.25ZM25.4448 27.0833H4.55484C3.88025 27.0833 3.33317 26.5367 3.33317 25.8617V12.5H26.6665V25.8617C26.6665 26.5367 26.1198 27.0833 25.4448 27.0833Z" fill="white"/>
<path d="M24.9567 23.6006C24.7262 23.6006 24.4971 23.7868 24.4971 24.0173C24.4971 24.9293 24.2054 25.0002 23.7929 25.0002H21.1637C20.9333 25.0002 20.7471 25.1864 20.7471 25.4168C20.7471 25.6473 20.9333 25.8335 21.1637 25.8335H23.7929C24.7492 25.8335 25.3058 25.2973 25.3675 24.2385C25.3721 24.2148 25.4167 24.1914 25.4167 24.1668V24.0173C25.4167 23.7868 25.1875 23.6006 24.9567 23.6006Z" fill="white"/>
<path d="M24.9479 22.6715C25.0562 22.6715 25.1646 22.6248 25.2437 22.5502C25.3192 22.4719 25.3646 22.3632 25.3646 22.2548C25.3646 22.1452 25.3192 22.0373 25.2437 21.9586C25.0854 21.8048 24.8063 21.8048 24.6521 21.9586C24.5767 22.0377 24.5312 22.1452 24.5312 22.2548C24.5312 22.3677 24.5767 22.4719 24.6521 22.5502C24.7308 22.6252 24.835 22.6715 24.9479 22.6715Z" fill="white"/>
<path d="M7.83089 15.4165H7.41423C7.18381 15.4165 6.99756 15.6028 6.99756 15.8332C6.99756 16.0636 7.18381 16.2498 7.41423 16.2498H7.83089C8.06131 16.2498 8.24756 16.0636 8.24756 15.8332C8.24756 15.6028 8.06131 15.4165 7.83089 15.4165Z" fill="white"/>
<path d="M10.7479 15.4165H10.3312C10.1008 15.4165 9.91455 15.6028 9.91455 15.8332C9.91455 16.0636 10.1008 16.2498 10.3312 16.2498H10.7479C10.9783 16.2498 11.1646 16.0636 11.1646 15.8332C11.1646 15.6028 10.9783 15.4165 10.7479 15.4165Z" fill="white"/>
<path d="M13.6644 15.4165H13.2477C13.0173 15.4165 12.8311 15.6028 12.8311 15.8332C12.8311 16.0636 13.0173 16.2498 13.2477 16.2498H13.6644C13.8948 16.2498 14.0811 16.0636 14.0811 15.8332C14.0811 15.6028 13.8948 15.4165 13.6644 15.4165Z" fill="white"/>
<path d="M16.1644 15.4165H15.7477C15.5173 15.4165 15.3311 15.6028 15.3311 15.8332C15.3311 16.0636 15.5173 16.2498 15.7477 16.2498H16.1644C16.3948 16.2498 16.5811 16.0636 16.5811 15.8332C16.5811 15.6028 16.3948 15.4165 16.1644 15.4165Z" fill="white"/>
<path d="M19.0809 15.4165H18.6642C18.4338 15.4165 18.2476 15.6028 18.2476 15.8332C18.2476 16.0636 18.4338 16.2498 18.6642 16.2498H19.0809C19.3113 16.2498 19.4976 16.0636 19.4976 15.8332C19.4976 15.6028 19.3113 15.4165 19.0809 15.4165Z" fill="white"/>
<path d="M21.5812 16.2498H21.9979C22.2283 16.2498 22.4146 16.0636 22.4146 15.8332C22.4146 15.6028 22.2283 15.4165 21.9979 15.4165H21.5812C21.3508 15.4165 21.1646 15.6028 21.1646 15.8332C21.1646 16.0636 21.3508 16.2498 21.5812 16.2498Z" fill="white"/>
<path d="M7.83089 17.9165H7.41423C7.18381 17.9165 6.99756 18.1028 6.99756 18.3332C6.99756 18.5636 7.18381 18.7498 7.41423 18.7498H7.83089C8.06131 18.7498 8.24756 18.5636 8.24756 18.3332C8.24756 18.1028 8.06131 17.9165 7.83089 17.9165Z" fill="white"/>
<path d="M10.7479 17.9165H10.3312C10.1008 17.9165 9.91455 18.1028 9.91455 18.3332C9.91455 18.5636 10.1008 18.7498 10.3312 18.7498H10.7479C10.9783 18.7498 11.1646 18.5636 11.1646 18.3332C11.1646 18.1028 10.9783 17.9165 10.7479 17.9165Z" fill="white"/>
<path d="M13.6644 17.9165H13.2477C13.0173 17.9165 12.8311 18.1028 12.8311 18.3332C12.8311 18.5636 13.0173 18.7498 13.2477 18.7498H13.6644C13.8948 18.7498 14.0811 18.5636 14.0811 18.3332C14.0811 18.1028 13.8948 17.9165 13.6644 17.9165Z" fill="white"/>
<path d="M16.1644 17.9165H15.7477C15.5173 17.9165 15.3311 18.1028 15.3311 18.3332C15.3311 18.5636 15.5173 18.7498 15.7477 18.7498H16.1644C16.3948 18.7498 16.5811 18.5636 16.5811 18.3332C16.5811 18.1028 16.3948 17.9165 16.1644 17.9165Z" fill="white"/>
<path d="M19.0809 17.9165H18.6642C18.4338 17.9165 18.2476 18.1028 18.2476 18.3332C18.2476 18.5636 18.4338 18.7498 18.6642 18.7498H19.0809C19.3113 18.7498 19.4976 18.5636 19.4976 18.3332C19.4976 18.1028 19.3113 17.9165 19.0809 17.9165Z" fill="white"/>
<path d="M21.5812 18.7498H21.9979C22.2283 18.7498 22.4146 18.5636 22.4146 18.3332C22.4146 18.1028 22.2283 17.9165 21.9979 17.9165H21.5812C21.3508 17.9165 21.1646 18.1028 21.1646 18.3332C21.1646 18.5636 21.3508 18.7498 21.5812 18.7498Z" fill="white"/>
<path d="M7.83089 22.9165H7.41423C7.18381 22.9165 6.99756 23.1028 6.99756 23.3332C6.99756 23.5636 7.18381 23.7498 7.41423 23.7498H7.83089C8.06131 23.7498 8.24756 23.5636 8.24756 23.3332C8.24756 23.1028 8.06131 22.9165 7.83089 22.9165Z" fill="white"/>
<path d="M10.7479 22.9165H10.3312C10.1008 22.9165 9.91455 23.1028 9.91455 23.3332C9.91455 23.5636 10.1008 23.7498 10.3312 23.7498H10.7479C10.9783 23.7498 11.1646 23.5636 11.1646 23.3332C11.1646 23.1028 10.9783 22.9165 10.7479 22.9165Z" fill="white"/>
<path d="M13.6644 22.9165H13.2477C13.0173 22.9165 12.8311 23.1028 12.8311 23.3332C12.8311 23.5636 13.0173 23.7498 13.2477 23.7498H13.6644C13.8948 23.7498 14.0811 23.5636 14.0811 23.3332C14.0811 23.1028 13.8948 22.9165 13.6644 22.9165Z" fill="white"/>
<path d="M16.1644 22.9165H15.7477C15.5173 22.9165 15.3311 23.1028 15.3311 23.3332C15.3311 23.5636 15.5173 23.7498 15.7477 23.7498H16.1644C16.3948 23.7498 16.5811 23.5636 16.5811 23.3332C16.5811 23.1028 16.3948 22.9165 16.1644 22.9165Z" fill="white"/>
<path d="M7.83089 20.4165H7.41423C7.18381 20.4165 6.99756 20.6028 6.99756 20.8332C6.99756 21.0636 7.18381 21.2498 7.41423 21.2498H7.83089C8.06131 21.2498 8.24756 21.0636 8.24756 20.8332C8.24756 20.6028 8.06131 20.4165 7.83089 20.4165Z" fill="white"/>
<path d="M10.7479 20.4165H10.3312C10.1008 20.4165 9.91455 20.6028 9.91455 20.8332C9.91455 21.0636 10.1008 21.2498 10.3312 21.2498H10.7479C10.9783 21.2498 11.1646 21.0636 11.1646 20.8332C11.1646 20.6028 10.9783 20.4165 10.7479 20.4165Z" fill="white"/>
<path d="M13.6644 20.4165H13.2477C13.0173 20.4165 12.8311 20.6028 12.8311 20.8332C12.8311 21.0636 13.0173 21.2498 13.2477 21.2498H13.6644C13.8948 21.2498 14.0811 21.0636 14.0811 20.8332C14.0811 20.6028 13.8948 20.4165 13.6644 20.4165Z" fill="white"/>
<path d="M16.1644 20.4165H15.7477C15.5173 20.4165 15.3311 20.6028 15.3311 20.8332C15.3311 21.0636 15.5173 21.2498 15.7477 21.2498H16.1644C16.3948 21.2498 16.5811 21.0636 16.5811 20.8332C16.5811 20.6028 16.3948 20.4165 16.1644 20.4165Z" fill="white"/>
<path d="M19.0809 20.4165H18.6642C18.4338 20.4165 18.2476 20.6028 18.2476 20.8332C18.2476 21.0636 18.4338 21.2498 18.6642 21.2498H19.0809C19.3113 21.2498 19.4976 21.0636 19.4976 20.8332C19.4976 20.6028 19.3113 20.4165 19.0809 20.4165Z" fill="white"/>
<path d="M21.5812 21.2498H21.9979C22.2283 21.2498 22.4146 21.0636 22.4146 20.8332C22.4146 20.6028 22.2283 20.4165 21.9979 20.4165H21.5812C21.3508 20.4165 21.1646 20.6028 21.1646 20.8332C21.1646 21.0636 21.3508 21.2498 21.5812 21.2498Z" fill="white"/>
</svg>
