<svg width="100" height="53" viewBox="0 0 100 53" fill="none" xmlns="http://www.w3.org/2000/svg">
<path d="M60.7555 1.90781C60.5674 0.806054 59.6127 0 58.4942 0H6.9199C5.43358 0 4.23007 1.20488 4.23007 2.68848C4.23007 4.1748 5.43358 5.37832 6.9199 5.37832H19.4712C20.9576 5.37832 22.1611 6.5834 22.1611 8.06836C22.1611 9.55332 20.9576 10.7582 19.4712 10.7582H2.68984C1.20488 10.7582 0 11.9631 0 13.448C0 14.933 1.20488 16.1363 2.68984 16.1363H25.5636C26.8761 16.1363 27.9409 17.2027 27.9409 18.5152C27.9409 19.8277 26.8761 20.8926 25.5636 20.8926H13.4111C11.9248 20.8926 10.7213 22.0977 10.7213 23.5826C10.7213 25.0674 11.9248 26.2725 13.4111 26.2725H22.3675C23.6812 26.2725 24.7462 27.3373 24.7462 28.6498C24.7462 29.9621 23.6812 31.0271 22.3675 31.0271H10.0029C8.51658 31.0271 7.31307 32.232 7.31307 33.717C7.31307 35.202 8.51658 36.4068 10.0029 36.4068H26.9978L28.0696 42.4697H34.2259C33.8638 43.3494 33.6573 44.3098 33.6573 45.3209C33.6573 49.4703 37.0202 52.8334 41.1698 52.8334C45.3176 52.8334 48.6807 49.4703 48.6807 45.3209C48.6807 44.3098 48.4743 43.3494 48.1122 42.4697H67.6512L60.7555 1.90781ZM44.4026 45.3207C44.4026 47.107 42.9559 48.5537 41.1696 48.5537C39.3821 48.5537 37.9352 47.107 37.9352 45.3207C37.9352 44.0777 38.6436 43.0113 39.672 42.4695H42.6659C43.694 43.0113 44.4026 44.0775 44.4026 45.3207Z" fill="white"/>
<path d="M99.9216 37.7588L96.8358 22.5359L85.5685 5.2002H65.0537L71.408 42.4695H78.9119C78.5513 43.3492 78.3447 44.3096 78.3447 45.3207C78.3447 49.4701 81.7078 52.8332 85.8556 52.8332C90.0052 52.8332 93.3681 49.4701 93.3681 45.3207C93.3681 44.3096 93.1616 43.3492 92.7997 42.4695H96.0694C97.2489 42.4695 98.3661 41.9406 99.1128 41.027C99.8581 40.115 100.156 38.9143 99.9216 37.7588ZM76.666 12.1357H81.8054L88.4777 22.3988H78.4168L76.666 12.1357ZM89.09 45.3207C89.09 47.107 87.6433 48.5537 85.8556 48.5537C84.0708 48.5537 82.6228 47.107 82.6228 45.3207C82.6228 44.0777 83.3328 43.0113 84.3595 42.4695H87.3534C88.3816 43.0113 89.09 44.0775 89.09 45.3207Z" fill="white"/>
</svg>
