<svg width="34" height="34" viewBox="0 0 34 34" fill="none" xmlns="http://www.w3.org/2000/svg">
<path d="M25.7187 8H25.7375M9.5 32H24.5C28.6421 32 32 28.6421 32 24.5V9.5C32 5.35786 28.6421 2 24.5 2H9.5C5.35786 2 2 5.35786 2 9.5V24.5C2 28.6421 5.35786 32 9.5 32ZM24.0313 17C24.0313 20.8833 20.8833 24.0313 17 24.0313C13.1167 24.0313 9.96875 20.8833 9.96875 17C9.96875 13.1167 13.1167 9.96875 17 9.96875C20.8833 9.96875 24.0313 13.1167 24.0313 17Z" stroke="white" stroke-width="4" stroke-linecap="round" stroke-linejoin="round"/>
</svg>
