<svg width="226" height="226" viewBox="0 0 226 226" fill="none" xmlns="http://www.w3.org/2000/svg">
<g clip-path="url(#clip0_958_41)">
<rect width="226" height="226" fill="white"/>
<rect x="43" y="81" width="38" height="63" fill="white" stroke="#00391F" stroke-width="2"/>
<line x1="42" y1="95" x2="82" y2="95" stroke="#00391F" stroke-width="2"/>
<line x1="42" y1="110" x2="82" y2="110" stroke="#00391F" stroke-width="2"/>
<line x1="42" y1="126" x2="82" y2="126" stroke="#00391F" stroke-width="2"/>
<line x1="42" y1="116" x2="82" y2="116" stroke="#00391F" stroke-width="2"/>
<line x1="67" y1="80" x2="67" y2="111" stroke="#00391F" stroke-width="2"/>
<line x1="74" y1="96" x2="74" y2="111" stroke="#00391F" stroke-width="2"/>
<line x1="55" y1="80" x2="55" y2="96" stroke="#00391F" stroke-width="2"/>
<line x1="72" y1="91" x2="75" y2="91" stroke="#00391F" stroke-width="2"/>
<line x1="48" y1="102" x2="48" y2="105" stroke="#00391F" stroke-width="2"/>
<line x1="75" y1="133" x2="75" y2="136" stroke="#00391F" stroke-width="2"/>
<line x1="52" y1="88" x2="52" y2="90" stroke="#00391F" stroke-width="2"/>
<line x1="58" y1="88" x2="58" y2="90" stroke="#00391F" stroke-width="2"/>
<line x1="41" y1="126" x2="74" y2="126" stroke="white" stroke-width="2"/>
<line x1="41" y1="116" x2="74" y2="116" stroke="white" stroke-width="2"/>
<line x1="43" y1="113" x2="43" y2="133" stroke="white" stroke-width="2"/>
<line x1="41" y1="144" x2="74" y2="144" stroke="white" stroke-width="2"/>
<mask id="path-18-inside-1_958_41" fill="white">
<path d="M18 120C18 117.239 20.2386 115 23 115H67C69.7614 115 72 117.239 72 120V145H18V120Z"/>
</mask>
<path d="M18 120C18 117.239 20.2386 115 23 115H67C69.7614 115 72 117.239 72 120V145H18V120Z" fill="white"/>
<path d="M16 120C16 116.134 19.134 113 23 113H67C70.866 113 74 116.134 74 120H70C70 118.343 68.6569 117 67 117H23C21.3431 117 20 118.343 20 120H16ZM72 145H18H72ZM16 145V120C16 116.134 19.134 113 23 113V117C21.3431 117 20 118.343 20 120V145H16ZM67 113C70.866 113 74 116.134 74 120V145H70V120C70 118.343 68.6569 117 67 117V113Z" fill="#00391F" mask="url(#path-18-inside-1_958_41)"/>
<line x1="26" y1="141.35" x2="64" y2="141.35" stroke="#00391F" stroke-width="1.3"/>
<path d="M51 132H64V138H46V137C46 134.239 48.2386 132 51 132Z" fill="white" stroke="#00391F" stroke-width="2"/>
<path d="M39 132H26V138H44V137C44 134.239 41.7614 132 39 132Z" fill="white" stroke="#00391F" stroke-width="2"/>
<path d="M65 131V144H71V126H70C67.2386 126 65 128.239 65 131Z" fill="white" stroke="#00391F" stroke-width="2"/>
<path d="M25 131V144H19V126H20C22.7614 126 25 128.239 25 131Z" fill="white" stroke="#00391F" stroke-width="2"/>
<rect x="61" y="130" width="8" height="8" rx="2" transform="rotate(180 61 130)" fill="white" stroke="#00391F" stroke-width="2"/>
<rect x="37" y="130" width="8" height="8" rx="2" transform="rotate(180 37 130)" fill="white" stroke="#00391F" stroke-width="2"/>
<path d="M35.0176 91.2578L35.1299 91.5342L35.4121 91.6299L37.9766 92.5L35.4121 93.3701L35.1299 93.4658L35.0176 93.7422L34 96.2637L32.9824 93.7422L32.8701 93.4658L32.5879 93.3701L30.0225 92.5L32.5879 91.6299L32.8701 91.5342L32.9824 91.2578L34 88.7354L35.0176 91.2578Z" fill="white" stroke="#00391F" stroke-width="1.3"/>
<path d="M28.0176 103.258L28.1299 103.534L28.4121 103.63L30.9766 104.5L28.4121 105.37L28.1299 105.466L28.0176 105.742L27 108.264L25.9824 105.742L25.8701 105.466L25.5879 105.37L23.0225 104.5L25.5879 103.63L25.8701 103.534L25.9824 103.258L27 100.735L28.0176 103.258Z" fill="white" stroke="#00391F" stroke-width="1.3"/>
<line y1="68" x2="100" y2="68" stroke="#00391F" stroke-width="10"/>
<line y1="158" x2="100" y2="158" stroke="#00391F" stroke-width="10"/>
<line x1="5" y1="63" x2="5" y2="163" stroke="#00391F" stroke-width="10"/>
<line x1="95" y1="63" x2="95" y2="83" stroke="#00391F" stroke-width="10"/>
<line x1="95" y1="142" x2="95" y2="162" stroke="#00391F" stroke-width="10"/>
<path d="M90.08 92.8H100.324V96.154H93.798V111H90.08V92.8ZM119.789 92.8L111.235 111H107.361L109.779 105.514L103.825 92.8H108.037L112.561 104.084L110.819 104.006L115.863 92.8H119.789ZM124.172 92.8H127.89V111H124.172V92.8ZM126.434 95.946V92.8H130.048C131.487 92.8 132.709 93.034 133.714 93.502C134.737 93.97 135.517 94.6373 136.054 95.504C136.591 96.3707 136.86 97.402 136.86 98.598C136.86 99.7767 136.591 100.808 136.054 101.692C135.517 102.559 134.737 103.226 133.714 103.694C132.709 104.162 131.487 104.396 130.048 104.396H126.434V101.25H130.048C131.036 101.25 131.816 101.025 132.388 100.574C132.96 100.123 133.246 99.4647 133.246 98.598C133.246 97.714 132.96 97.0553 132.388 96.622C131.816 96.1713 131.036 95.946 130.048 95.946H126.434ZM139.729 96.154V92.8H153.249V96.154H148.335V111H144.617V96.154H139.729ZM165.268 111H156.818V108.764L159.08 107.724V95.712L156.818 94.672V92.436H165.268V94.672L163.006 95.712V107.724L165.268 108.764V111ZM173.449 101.77V100.08H176.387C176.925 100.08 177.393 99.9933 177.791 99.82C178.19 99.6467 178.493 99.3953 178.701 99.066C178.927 98.7367 179.039 98.3467 179.039 97.896C179.039 97.2027 178.797 96.674 178.311 96.31C177.843 95.946 177.202 95.764 176.387 95.764H174.385V108.036H176.777C177.401 108.036 177.965 107.949 178.467 107.776C178.97 107.585 179.36 107.291 179.637 106.892C179.932 106.493 180.079 105.982 180.079 105.358C180.079 104.907 179.993 104.526 179.819 104.214C179.663 103.885 179.429 103.616 179.117 103.408C178.823 103.183 178.476 103.027 178.077 102.94C177.679 102.836 177.245 102.784 176.777 102.784H173.449V100.756H177.115C177.999 100.756 178.84 100.851 179.637 101.042C180.452 101.233 181.18 101.536 181.821 101.952C182.463 102.351 182.965 102.871 183.329 103.512C183.711 104.153 183.901 104.925 183.901 105.826C183.901 107.022 183.615 108.001 183.043 108.764C182.489 109.527 181.7 110.09 180.677 110.454C179.655 110.818 178.467 111 177.115 111H170.667V92.8H176.725C177.939 92.8 179.005 92.9733 179.923 93.32C180.842 93.6493 181.561 94.152 182.081 94.828C182.601 95.504 182.861 96.362 182.861 97.402C182.861 98.3207 182.601 99.1093 182.081 99.768C181.561 100.427 180.842 100.929 179.923 101.276C179.005 101.605 177.939 101.77 176.725 101.77H173.449ZM190.892 102.992V99.638H204.256V102.992H190.892ZM201.89 92.8H205.608V111H201.89V92.8ZM189.67 92.8H193.388V111H189.67V92.8ZM220.159 102.524L214.699 111H210.305L216.233 102.524H220.159ZM224.293 92.8V111H220.575V92.8H224.293ZM222.031 95.972H218.417C217.776 95.972 217.213 96.0847 216.727 96.31C216.242 96.518 215.869 96.83 215.609 97.246C215.349 97.6447 215.219 98.13 215.219 98.702C215.219 99.274 215.349 99.768 215.609 100.184C215.869 100.583 216.242 100.895 216.727 101.12C217.213 101.328 217.776 101.432 218.417 101.432H222.031V104.396H218.183C216.762 104.396 215.54 104.153 214.517 103.668C213.512 103.183 212.741 102.507 212.203 101.64C211.666 100.756 211.397 99.742 211.397 98.598C211.397 97.4367 211.666 96.4227 212.203 95.556C212.741 94.6893 213.512 94.0133 214.517 93.528C215.54 93.0427 216.762 92.8 218.183 92.8H222.031V95.972ZM93.98 124.782L92.81 135H88.936L91.64 115.89L99.258 127.642L106.876 115.89L109.58 135H105.706L104.536 124.782L99.258 133.31L93.98 124.782ZM117.489 135V131.854H126.667V135H117.489ZM117.489 119.946V116.8H126.667V119.946H117.489ZM117.489 126.888V123.794H126.147V126.888H117.489ZM115.097 116.8H118.685V135H115.097V116.8ZM134.258 126.888V123.794H140.212C141.391 123.794 142.439 124.028 143.358 124.496C144.294 124.947 145.031 125.597 145.568 126.446C146.123 127.278 146.4 128.257 146.4 129.384C146.4 130.493 146.123 131.473 145.568 132.322C145.031 133.171 144.294 133.83 143.358 134.298C142.439 134.766 141.391 135 140.212 135H134.258V131.854H139.536C140.16 131.854 140.706 131.767 141.174 131.594C141.642 131.403 141.997 131.126 142.24 130.762C142.5 130.398 142.63 129.939 142.63 129.384C142.63 128.812 142.5 128.344 142.24 127.98C141.997 127.616 141.642 127.347 141.174 127.174C140.706 126.983 140.16 126.888 139.536 126.888H134.258ZM133.036 116.8H145.022V119.946H136.806V135H133.036V116.8ZM167.064 116.8V135H163.294V120.154H156.638V127.746C156.638 129.271 156.413 130.58 155.962 131.672C155.529 132.747 154.844 133.57 153.908 134.142C152.972 134.714 151.768 135 150.294 135V131.854C150.71 131.854 151.083 131.759 151.412 131.568C151.742 131.377 152.019 131.1 152.244 130.736C152.47 130.372 152.643 129.939 152.764 129.436C152.886 128.933 152.946 128.379 152.946 127.772V116.8H167.064ZM181.036 135H172.586V132.764L174.848 131.724V119.712L172.586 118.672V116.436H181.036V118.672L178.774 119.712V131.724L181.036 132.764V135ZM189.217 125.77V124.08H192.155C192.692 124.08 193.16 123.993 193.559 123.82C193.958 123.647 194.261 123.395 194.469 123.066C194.694 122.737 194.807 122.347 194.807 121.896C194.807 121.203 194.564 120.674 194.079 120.31C193.611 119.946 192.97 119.764 192.155 119.764H190.153V132.036H192.545C193.169 132.036 193.732 131.949 194.235 131.776C194.738 131.585 195.128 131.291 195.405 130.892C195.7 130.493 195.847 129.982 195.847 129.358C195.847 128.907 195.76 128.526 195.587 128.214C195.431 127.885 195.197 127.616 194.885 127.408C194.59 127.183 194.244 127.027 193.845 126.94C193.446 126.836 193.013 126.784 192.545 126.784H189.217V124.756H192.883C193.767 124.756 194.608 124.851 195.405 125.042C196.22 125.233 196.948 125.536 197.589 125.952C198.23 126.351 198.733 126.871 199.097 127.512C199.478 128.153 199.669 128.925 199.669 129.826C199.669 131.022 199.383 132.001 198.811 132.764C198.256 133.527 197.468 134.09 196.445 134.454C195.422 134.818 194.235 135 192.883 135H186.435V116.8H192.493C193.706 116.8 194.772 116.973 195.691 117.32C196.61 117.649 197.329 118.152 197.849 118.828C198.369 119.504 198.629 120.362 198.629 121.402C198.629 122.321 198.369 123.109 197.849 123.768C197.329 124.427 196.61 124.929 195.691 125.276C194.772 125.605 193.706 125.77 192.493 125.77H189.217Z" fill="#00391F"/>
<path d="M108.176 147.48H107.184L108.752 143.8H109.344L108.176 147.48ZM110.992 147.48H110L111.568 143.8H112.16L110.992 147.48ZM115.779 149.4C115.779 150.328 115.976 151.16 116.371 151.896C116.776 152.632 117.326 153.213 118.019 153.64C118.723 154.056 119.523 154.264 120.419 154.264C121.315 154.264 122.11 154.056 122.803 153.64C123.507 153.213 124.056 152.632 124.451 151.896C124.846 151.16 125.043 150.328 125.043 149.4C125.043 148.461 124.846 147.629 124.451 146.904C124.056 146.168 123.507 145.592 122.803 145.176C122.11 144.749 121.315 144.536 120.419 144.536C119.523 144.536 118.723 144.749 118.019 145.176C117.326 145.592 116.776 146.168 116.371 146.904C115.976 147.629 115.779 148.461 115.779 149.4ZM114.851 149.4C114.851 148.579 114.99 147.821 115.267 147.128C115.544 146.424 115.934 145.816 116.435 145.304C116.936 144.781 117.523 144.376 118.195 144.088C118.878 143.8 119.619 143.656 120.419 143.656C121.219 143.656 121.955 143.8 122.627 144.088C123.31 144.376 123.902 144.781 124.403 145.304C124.904 145.816 125.294 146.424 125.571 147.128C125.848 147.821 125.987 148.579 125.987 149.4C125.987 150.221 125.848 150.984 125.571 151.688C125.294 152.381 124.904 152.989 124.403 153.512C123.902 154.024 123.31 154.424 122.627 154.712C121.955 155 121.219 155.144 120.419 155.144C119.619 155.144 118.878 155 118.195 154.712C117.523 154.424 116.936 154.024 116.435 153.512C115.934 152.989 115.544 152.381 115.267 151.688C114.99 150.984 114.851 150.221 114.851 149.4ZM129.583 154.616C129.583 154.445 129.642 154.301 129.759 154.184C129.876 154.067 130.015 154.008 130.175 154.008C130.346 154.008 130.484 154.067 130.591 154.184C130.708 154.301 130.767 154.445 130.767 154.616C130.767 154.776 130.708 154.915 130.591 155.032C130.484 155.149 130.346 155.208 130.175 155.208C130.015 155.208 129.876 155.149 129.759 155.032C129.642 154.915 129.583 154.776 129.583 154.616ZM140.37 145.288L136.754 154.648H135.81L140.37 143.24L144.93 154.648H143.986L140.37 145.288ZM145.266 155H135.474V156.76H134.69V154.168H146.05V156.76H145.266V155ZM150.533 154.616C150.533 154.445 150.592 154.301 150.709 154.184C150.826 154.067 150.965 154.008 151.125 154.008C151.296 154.008 151.434 154.067 151.541 154.184C151.658 154.301 151.717 154.445 151.717 154.616C151.717 154.776 151.658 154.915 151.541 155.032C151.434 155.149 151.296 155.208 151.125 155.208C150.965 155.208 150.826 155.149 150.709 155.032C150.592 154.915 150.533 154.776 150.533 154.616ZM157.24 151.24L157.528 150.408H162.696L162.984 151.24H157.24ZM160.088 145.4L157.912 150.696L157.816 150.888L156.136 155H155.144L160.088 143.368L165.032 155H164.04L162.376 150.952L162.296 150.744L160.088 145.4ZM169.327 154.616C169.327 154.445 169.386 154.301 169.503 154.184C169.62 154.067 169.759 154.008 169.919 154.008C170.09 154.008 170.228 154.067 170.335 154.184C170.452 154.301 170.511 154.445 170.511 154.616C170.511 154.776 170.452 154.915 170.335 155.032C170.228 155.149 170.09 155.208 169.919 155.208C169.759 155.208 169.62 155.149 169.503 155.032C169.386 154.915 169.327 154.776 169.327 154.616ZM175.826 143.8H176.818L175.25 147.48H174.658L175.826 143.8ZM178.642 143.8H179.634L178.066 147.48H177.474L178.642 143.8Z" fill="#00391F"/>
</g>
<defs>
<clipPath id="clip0_958_41">
<rect width="226" height="226" fill="white"/>
</clipPath>
</defs>
</svg>
