<svg width="106" height="100" viewBox="0 0 106 100" fill="none" xmlns="http://www.w3.org/2000/svg">
<path d="M105.751 56.8817C105.499 56.1623 104.821 55.6807 104.059 55.6807H86.9724V1.79244C86.9724 0.802537 86.1701 0 85.18 0H20.6718C19.6819 0 18.8794 0.802537 18.8794 1.79244V55.6807H1.79259C1.03069 55.6807 0.352186 56.1623 0.100527 56.8817C-0.150893 57.6008 0.0797346 58.4005 0.675543 58.8751L51.809 99.6095C52.1357 99.8698 52.5307 100 52.9258 100C53.3208 100 53.7159 99.87 54.0426 99.6095L105.176 58.8751C105.772 58.4005 106.002 57.601 105.751 56.8817ZM52.9258 95.9159L6.91922 59.2656H20.6718C21.6617 59.2656 22.4643 58.4631 22.4643 57.4732V3.58489H83.3875V57.4732C83.3875 58.4631 84.1898 59.2656 85.18 59.2656H98.9321L52.9258 95.9159Z" fill="white"/>
<path d="M37.2754 38.0362H43.8068C44.7967 38.0362 45.5992 37.2336 45.5992 36.2437C45.5992 35.2538 44.7967 34.4513 43.8068 34.4513H39.0678V23.1811C39.0678 22.1912 38.2653 21.3887 37.2754 21.3887C36.2854 21.3887 35.4829 22.1912 35.4829 23.1811V36.2437C35.4829 37.2336 36.2854 38.0362 37.2754 38.0362Z" fill="white"/>
<path d="M69.094 37.9599C69.8509 37.7315 70.3688 37.0343 70.3688 36.2437V23.1811C70.3688 22.1912 69.5665 21.3887 68.5763 21.3887C67.5862 21.3887 66.7839 22.1912 66.7839 23.1811V30.3009L65.733 28.7174C65.4008 28.2169 64.8404 27.916 64.2396 27.916C63.6387 27.916 63.0783 28.2169 62.7461 28.7174L61.6952 30.3009V23.1811C61.6952 22.1912 60.8929 21.3887 59.9028 21.3887C58.9126 21.3887 58.1104 22.1912 58.1104 23.1811V36.2437C58.1104 37.0343 58.6282 37.7315 59.3851 37.9599C60.1427 38.1884 60.9596 37.8935 61.3963 37.2348L64.2396 32.9499L67.0829 37.2348C67.421 37.7446 67.987 38.0364 68.5766 38.0364C68.7486 38.0364 68.9229 38.0116 69.094 37.9599Z" fill="white"/>
<path d="M51.1218 21.3887C48.3327 21.3887 46.0635 23.6577 46.0635 26.4467V32.9781C46.0635 35.7672 48.3325 38.0364 51.1218 38.0364C53.911 38.0364 56.18 35.7672 56.18 32.9781V26.4467C56.1798 23.6577 53.9108 21.3887 51.1218 21.3887ZM52.5949 32.9779C52.5949 33.7902 51.9339 34.4513 51.1215 34.4513C50.3092 34.4513 49.6481 33.7902 49.6481 32.9779V26.4467C49.6481 25.6344 50.3092 24.9736 51.1215 24.9736C51.9339 24.9736 52.5949 25.6344 52.5949 26.4467V32.9779Z" fill="white"/>
<path d="M76.8146 49.6249C77.8047 49.6249 78.607 48.8224 78.607 47.8325C78.607 46.8426 77.8047 46.04 76.8146 46.04H70.2832C69.293 46.04 68.4907 46.8426 68.4907 47.8325V60.8951C68.4907 61.885 69.293 62.6875 70.2832 62.6875H76.8146C77.8047 62.6875 78.607 61.885 78.607 60.8951C78.607 59.9052 77.8047 59.1027 76.8146 59.1027H72.0756V56.1561H73.9675C74.9576 56.1561 75.7599 55.3536 75.7599 54.3637C75.7599 53.3738 74.9576 52.5712 73.9675 52.5712H72.0756V49.6247L76.8146 49.6249Z" fill="white"/>
<path d="M53.4131 46.04C52.4229 46.04 51.6206 46.8426 51.6206 47.8325V60.8951C51.6206 61.885 52.4229 62.6875 53.4131 62.6875C54.4032 62.6875 55.2055 61.885 55.2055 60.8951V47.8325C55.2055 46.8426 54.4032 46.04 53.4131 46.04Z" fill="white"/>
<path d="M65.0497 49.6249C66.0399 49.6249 66.8422 48.8224 66.8422 47.8325C66.8422 46.8426 66.0399 46.04 65.0497 46.04C60.4601 46.04 56.7261 49.7741 56.7261 54.3639C56.7261 58.9538 60.4601 62.6878 65.0497 62.6878C66.0399 62.6878 66.8422 61.8852 66.8422 60.8953C66.8422 59.9054 66.0399 59.1029 65.0497 59.1029C62.4366 59.1029 60.311 56.9771 60.311 54.3639C60.311 51.7508 62.4368 49.6249 65.0497 49.6249Z" fill="white"/>
<path d="M32.3022 46.04H29.0366C28.0467 46.04 27.2441 46.8426 27.2441 47.8325V60.8951C27.2441 61.885 28.0467 62.6875 29.0366 62.6875C30.0265 62.6875 30.829 61.885 30.829 60.8951V56.1561H32.3022C35.0912 56.1561 37.3605 53.8871 37.3605 51.0981C37.3605 48.309 35.0912 46.04 32.3022 46.04ZM32.3022 52.5715H30.829V49.6249H32.3022C33.1145 49.6249 33.7756 50.286 33.7756 51.0983C33.7756 51.9107 33.1145 52.5715 32.3022 52.5715Z" fill="white"/>
<path d="M44.8085 56.05C47.1028 55.5711 48.8317 53.5327 48.8317 51.0983C48.8317 48.3093 46.5627 46.04 43.7734 46.04H40.5078C39.5179 46.04 38.7153 46.8426 38.7153 47.8325V54.3496C38.7153 54.3589 38.7153 54.3682 38.7153 54.3775V60.8953C38.7153 61.8852 39.5179 62.6878 40.5078 62.6878C41.4977 62.6878 42.3002 61.8852 42.3002 60.8953V58.6115L45.9642 62.1794C46.6733 62.8701 47.8085 62.8553 48.4987 62.1458C49.1894 61.4367 49.1744 60.3017 48.465 59.6112L44.8085 56.05ZM42.3002 52.5717V49.6252H43.7734C44.5857 49.6252 45.2468 50.2862 45.2468 51.0986C45.2468 51.9109 44.5857 52.5717 43.7734 52.5717H42.3002Z" fill="white"/>
</svg>
