<svg width="100" height="100" viewBox="0 0 100 100" fill="none" xmlns="http://www.w3.org/2000/svg">
<path d="M66.2682 74.7239V90.1531L73.6605 93.2299V70.6805C71.3384 72.2731 68.8618 73.6277 66.2682 74.7239ZM26.3397 70.6805V93.076L33.7321 89.9992V74.7239C31.1384 73.6278 28.6618 72.2731 26.3397 70.6805ZM50 78.0063C46.5093 78.0082 43.032 77.5738 39.6491 76.7131V100L50 95.692L60.351 99.9998V76.7131C56.968 77.5737 53.4907 78.0081 50 78.0063ZM50 0C30.1251 0 13.9556 16.1695 13.9556 36.0447C13.9556 55.9198 30.1251 72.0891 50 72.0891C69.875 72.0891 86.0447 55.9196 86.0447 36.0445C86.0447 16.1693 69.8752 0 50 0ZM50 64.4725C34.2436 64.4725 21.4247 51.6536 21.4247 35.8972C21.4247 20.1406 34.2436 7.32167 50 7.32167C65.7564 7.32167 78.5754 20.1406 78.5754 35.8972C78.5754 51.6538 65.7566 64.4725 50 64.4725ZM50 13.2386C37.5063 13.2386 27.3417 23.4031 27.3417 35.8972C27.3417 48.3913 37.5063 58.5554 50 58.5554C62.4938 58.5554 72.6584 48.3909 72.6584 35.897C72.6584 23.4031 62.4939 13.2386 50 13.2386ZM59.3127 49.121L50 44.2251L40.6875 49.121L42.4661 38.7515L34.9321 31.4078L45.344 29.8947L50 20.4599L54.6563 29.8947L65.0682 31.4078L57.5342 38.7515L59.3127 49.121Z" fill="white"/>
</svg>
