<svg width="100" height="100" viewBox="0 0 100 100" fill="none" xmlns="http://www.w3.org/2000/svg">
<path d="M98.7816 15.9481L84.0523 1.21878C83.2697 0.438297 82.2095 0 81.1043 0C79.999 0 78.9388 0.438297 78.1563 1.21878L74.4687 4.90634L81.0941 11.5312C81.6798 12.1169 82.0089 12.9113 82.0089 13.7397C82.0089 14.568 81.6798 15.3624 81.0941 15.9481C80.5084 16.5338 79.714 16.8629 78.8856 16.8629C78.0573 16.8629 77.2629 16.5338 76.6772 15.9481L70.0524 9.32299L66.3231 13.052L70.7604 17.4689C71.0516 17.76 71.2824 18.1057 71.4398 18.4861C71.5971 18.8666 71.6779 19.2744 71.6774 19.6861C71.677 20.0978 71.5953 20.5054 71.4371 20.8855C71.2788 21.2656 71.0472 21.6107 70.7554 21.9012C70.4636 22.1916 70.1173 22.4216 69.7365 22.5781C69.3556 22.7345 68.9477 22.8143 68.536 22.8128C68.1243 22.8113 67.7169 22.7286 67.3372 22.5695C66.9575 22.4103 66.6129 22.1778 66.3231 21.8853L61.9062 17.4689L58.1774 21.1982L62.6147 25.6146C63.2004 26.203 63.5284 27 63.5264 27.8302C63.5245 28.6605 63.1929 29.456 62.6045 30.0417C62.0161 30.6274 61.2191 30.9554 60.3888 30.9535C59.5586 30.9516 58.7631 30.6199 58.1774 30.0315L53.7605 25.6146L50.0521 29.323L54.469 33.7605C54.759 34.0505 54.989 34.3948 55.146 34.7737C55.3029 35.1527 55.3837 35.5588 55.3837 35.9689C55.3837 36.3791 55.3029 36.7852 55.1459 37.1641C54.9889 37.543 54.7589 37.8873 54.4689 38.1773C54.1788 38.4673 53.8345 38.6973 53.4556 38.8543C53.0767 39.0112 52.6706 39.092 52.2604 39.092C51.8503 39.092 51.4442 39.0112 51.0653 38.8542C50.6864 38.6972 50.3421 38.4672 50.0521 38.1772L45.6148 33.7605L41.9064 37.4689L48.5313 44.1149C48.8225 44.4046 49.0538 44.7489 49.2118 45.1281C49.3697 45.5073 49.4513 45.914 49.4519 46.3248C49.4524 46.7356 49.3719 47.1425 49.215 47.5221C49.058 47.9018 48.8277 48.2467 48.5372 48.5372C48.2467 48.8277 47.9018 49.058 47.5221 49.215C47.1425 49.3719 46.7356 49.4524 46.3248 49.4519C45.914 49.4513 45.5073 49.3697 45.1281 49.2118C44.7489 49.0538 44.4046 48.8225 44.1149 48.5313L37.4895 41.9064L33.7607 45.6148L38.1771 50.0312C38.4694 50.3221 38.7013 50.6679 38.8595 51.0487C39.0177 51.4295 39.0992 51.8378 39.0992 52.2501C39.0992 52.6624 39.0177 53.0707 38.8595 53.4515C38.7013 53.8323 38.4694 54.1781 38.1771 54.469C37.5863 55.0447 36.7939 55.367 35.9689 55.367C35.144 55.367 34.3516 55.0447 33.7607 54.469L29.3438 50.0312L25.6146 53.7605L30.0315 58.1774C30.6163 58.7633 30.9446 59.5574 30.9442 60.3852C30.9439 61.2131 30.6148 62.0069 30.0294 62.5922C29.444 63.1776 28.6502 63.5065 27.8223 63.5068C26.9945 63.5071 26.2004 63.1787 25.6146 62.5938L21.1982 58.1774L17.469 61.9064L21.8854 66.3231C22.4711 66.9087 22.8001 67.7031 22.8002 68.5313C22.8002 69.3596 22.4712 70.1539 21.8855 70.7396C21.2999 71.3253 20.5056 71.6544 19.6773 71.6544C18.849 71.6544 18.0547 71.3254 17.469 70.7398L13.0521 66.3231L9.32325 70.0523L15.9481 76.6772C16.2381 76.9672 16.4682 77.3115 16.6251 77.6904C16.7821 78.0694 16.8629 78.4755 16.8629 78.8856C16.8629 79.2958 16.7821 79.7019 16.6251 80.0808C16.4682 80.4598 16.2381 80.8041 15.9481 81.0941C15.6581 81.3841 15.3138 81.6142 14.9349 81.7711C14.5559 81.9281 14.1498 82.0089 13.7397 82.0089C13.3295 82.0089 12.9234 81.9281 12.5445 81.7711C12.1655 81.6142 11.8212 81.3841 11.5312 81.0941L4.90634 74.469L1.21878 78.1563C0.438297 78.9388 0 79.999 0 81.1043C0 82.2095 0.438297 83.2697 1.21878 84.0523L15.9481 98.7816C16.7307 99.562 17.7907 100 18.8959 100C20.001 100 21.0611 99.562 21.8436 98.7816L98.7816 21.8439C99.5619 21.0612 100 20.0011 100 18.896C100 17.7908 99.5619 16.7308 98.7816 15.9481Z" fill="white"/>
</svg>
