<svg width="118" height="100" viewBox="0 0 118 100" fill="none" xmlns="http://www.w3.org/2000/svg">
<path d="M63.2664 76.2229L46.3904 69.1915C45.6391 68.8785 45.1539 68.1504 45.1539 67.3364V63.7568L48.3092 62.0039C51.0127 60.5018 52.7938 57.7664 53.0737 54.6865L53.0807 54.6102H54.7283C57.7916 54.6102 60.2839 52.1179 60.2839 49.0545V45.6395C60.7806 44.4384 62.1751 40.5941 62.1751 35.2905C62.1751 27.9626 59.3046 21.0486 54.0926 15.8218C52.0983 13.8221 49.8427 12.1599 47.3956 10.8636C47.3104 4.86167 41.3017 0 33.9247 0C26.5477 0 20.5391 4.86167 20.4536 10.8636C18.0066 12.1597 15.7509 13.8219 13.7567 15.8218C8.54463 21.0486 5.67416 27.9624 5.67416 35.2905C5.67416 40.5941 7.06862 44.4382 7.56534 45.6395V49.0545C7.56534 52.1179 10.0576 54.6102 13.121 54.6102H14.7686L14.7753 54.6865C15.0552 57.7664 16.8366 60.502 19.54 62.0039L22.6954 63.7568V67.3364C22.6954 68.1502 22.2099 68.8783 21.4588 69.1915L4.58287 76.2229C1.79874 77.3829 0 80.0812 0 83.0969V94.4444C0 97.5077 2.49227 100 5.55564 100H62.2934C65.3567 100 67.849 97.5077 67.849 94.4444V83.0969C67.8488 80.0812 66.05 77.3829 63.2664 76.2229ZM56.7377 49.0543C56.7377 50.1623 55.8363 51.0638 54.7283 51.0638H53.4032L54.1124 43.2623H54.7283C55.8363 43.2623 56.7377 44.1637 56.7377 45.2717V49.0543ZM33.9245 3.54616C38.5687 3.54616 42.4767 5.95014 43.5565 9.18597C40.5192 8.12077 37.2725 7.56512 33.9245 7.56512C30.5765 7.56512 27.33 8.12077 24.2925 9.18597C25.372 5.95014 29.2801 3.54616 33.9245 3.54616ZM13.1205 51.0638C12.0125 51.0638 11.1111 50.1623 11.1111 49.0543V45.2717C11.1111 44.1637 12.0125 43.2623 13.1205 43.2623H13.7364L14.4456 51.0638H13.1205ZM21.2622 58.904C19.5852 57.9723 18.4802 56.2756 18.3067 54.3653L16.9568 39.5176C19.276 39.503 23.3426 39.3055 28.0981 38.3201C37.8236 36.3052 45.758 31.9092 51.0433 25.6076C51.6727 24.8575 51.5746 23.739 50.8241 23.1099C50.0738 22.4805 48.9556 22.5786 48.3262 23.3291C36.7913 37.0823 15.4162 35.9555 15.1239 35.9377V35.9396C15.0343 35.9342 14.9436 35.9331 14.8514 35.9416C13.8763 36.0303 13.1575 36.8926 13.2462 37.8678L13.4141 39.7165H13.1205C11.8792 39.7165 10.7316 40.126 9.80556 40.8165C9.48413 39.3238 9.21968 37.4439 9.21968 35.2905C9.21968 28.908 11.7226 22.8835 16.2672 18.3258C20.9066 13.6734 27.1773 11.1111 33.9243 11.1111C40.6713 11.1111 46.9417 13.6731 51.5814 18.3258C56.126 22.883 58.6289 28.908 58.6289 35.2905C58.6289 37.4437 58.3647 39.324 58.043 40.8168C57.117 40.126 55.9696 39.7165 54.728 39.7165H54.4344L54.6026 37.8676C54.6504 37.3437 54.4625 36.8254 54.0904 36.4533L50.3078 32.6708C49.6154 31.9783 48.4928 31.9783 47.8006 32.6708C47.1081 33.3632 47.1081 34.4856 47.8006 35.178L50.9959 38.3734L49.7335 52.2603C48.2855 53.541 43.6931 56.7377 33.9243 56.7377C32.945 56.7377 32.1512 57.5315 32.1512 58.5108C32.1512 59.4901 32.945 60.2839 33.9243 60.2839C40.7126 60.2839 45.3579 58.8625 48.3708 57.3621C47.8947 57.9839 47.2921 58.5123 46.5868 58.9042L36.7371 64.3764C34.9758 65.3548 32.8728 65.3548 31.1117 64.3764L21.2622 58.904ZM22.8226 72.4645C24.8995 71.5992 26.2413 69.5862 26.2413 67.3364V65.7267L29.3895 67.4758C30.8094 68.2644 32.3667 68.6591 33.9245 68.6591C35.4823 68.6591 37.0396 68.2648 38.4595 67.4758L41.6077 65.7267V67.3364C41.6077 69.5866 42.9495 71.5994 45.0264 72.4645L46.8863 73.2394C43.5602 77.1009 40.3457 79.0194 38.1685 79.9576C35.7604 80.9952 34.093 81.0805 33.9243 81.0868C33.7555 81.0807 32.0881 80.9952 29.68 79.9576C27.5029 79.0197 24.2886 77.1009 20.9623 73.2394L22.8226 72.4645ZM11.3475 96.4541H5.55564C4.4476 96.4541 3.54616 95.5526 3.54616 94.4446V83.0971C3.54616 82.6082 3.63685 82.1354 3.80474 81.6974L9.88363 86.5609C10.8142 87.3051 11.3475 88.4153 11.3475 89.6068V96.4541ZM52.9552 89.6064V96.4538H14.8936V89.6064C14.8936 87.3316 13.875 85.2123 12.0988 83.7913L6.46164 79.2815L17.5362 74.6671C23.3787 81.8934 29.2842 83.8816 32.1512 84.4272V90.4256C32.1512 91.4049 32.945 92.1987 33.9243 92.1987C34.9036 92.1987 35.6974 91.4049 35.6974 90.4256V84.4272C38.5646 83.8816 44.4699 81.8934 50.3124 74.6671L61.3869 79.2815L55.7497 83.7913C53.9738 85.2123 52.9552 87.3318 52.9552 89.6064ZM64.3026 94.4446C64.3026 95.5526 63.4012 96.4541 62.2932 96.4541H56.5011V89.6066C56.5011 88.4151 57.0346 87.3051 57.9649 86.5604L64.0438 81.6972C64.2117 82.1352 64.3024 82.608 64.3024 83.0969V94.4446H64.3026Z" fill="white"/>
<path d="M31.7393 44.5022C30.892 42.744 28.8486 41.6074 26.5331 41.6074C24.2176 41.6074 22.1742 42.7437 21.327 44.5022C20.902 45.3843 21.2726 46.4441 22.1549 46.8693C23.037 47.2944 24.0967 46.9234 24.5219 46.0413C24.7292 45.6112 25.5047 45.1536 26.5333 45.1536C27.562 45.1536 28.3373 45.6109 28.5448 46.0413C28.8501 46.6757 29.4838 47.0454 30.1434 47.0454C30.4016 47.0454 30.6639 46.9886 30.9118 46.8693C31.7936 46.4441 32.1642 45.3845 31.7393 44.5022Z" fill="white"/>
<path d="M46.5216 44.5022C45.6745 42.744 43.6311 41.6074 41.3154 41.6074C38.9998 41.6074 36.9566 42.7437 36.1093 44.5022C35.6841 45.3845 36.0549 46.4441 36.9372 46.8693C37.8193 47.2944 38.8791 46.9234 39.3042 46.0413C39.5115 45.6112 40.287 45.1536 41.3157 45.1536C42.3443 45.1536 43.1196 45.6109 43.3271 46.0413C43.6324 46.6757 44.2662 47.0454 44.9258 47.0454C45.1839 47.0454 45.4462 46.9886 45.6941 46.8693C46.576 46.4441 46.9468 45.3845 46.5216 44.5022Z" fill="white"/>
<path d="M93.0206 10.4712H92.9997C91.9153 10.4712 91.0469 11.3502 91.0469 12.4346C91.0469 13.519 91.9364 14.3979 93.0206 14.3979C94.1048 14.3979 94.984 13.519 94.984 12.4346C94.984 11.3502 94.1048 10.4712 93.0206 10.4712Z" fill="white"/>
<path d="M92.9999 0C79.2148 0 68 11.2148 68 24.9999C68 32.2328 71.0627 38.9624 76.4604 43.7169C73.7519 48.1508 70.8125 50.7061 70.7824 50.7321C70.1356 51.2845 69.9181 52.1907 70.2437 52.9765C70.5495 53.7141 71.2684 54.1883 72.0568 54.1883C72.1083 54.1883 72.1603 54.1861 72.2126 54.1823C72.5355 54.1565 79.9081 53.527 86.4482 49.1292C88.5797 49.7072 90.7791 50 93.0001 50C106.785 50 118 38.7852 118 25.0001C118 11.2148 106.785 0 92.9999 0ZM92.9999 46.073C90.8494 46.073 88.7237 45.7481 86.6818 45.1071C86.0875 44.9207 85.4397 45.0269 84.9364 45.3946C82.5191 47.1591 79.8658 48.2979 77.5874 49.0271C78.6065 47.6829 79.695 46.067 80.7154 44.2016C81.1796 43.3527 80.9564 42.2922 80.1892 41.7024C74.9382 37.6685 71.9268 31.5804 71.9268 24.9999C71.9268 13.38 81.38 3.92675 92.9999 3.92675C104.62 3.92675 114.073 13.38 114.073 24.9999C114.073 36.6198 104.62 46.073 92.9999 46.073Z" fill="white"/>
<path d="M95.0938 35.602H94.9628V22.7749H95.0938C96.1782 22.7749 97.0572 21.8959 97.0572 20.8115C97.0572 19.7271 96.1782 18.8481 95.0938 18.8481H90.9053C89.8209 18.8481 88.9419 19.7271 88.9419 20.8115C88.9419 21.8959 89.8209 22.7749 90.9053 22.7749H91.0363V35.602H90.9053C89.8209 35.602 88.9419 36.481 88.9419 37.5654C88.9419 38.6498 89.8209 39.5287 90.9053 39.5287H95.0938C96.1782 39.5287 97.0572 38.6498 97.0572 37.5654C97.0572 36.4812 96.1782 35.602 95.0938 35.602Z" fill="white"/>
</svg>
