<svg width="50" height="50" viewBox="0 0 50 50" fill="none" xmlns="http://www.w3.org/2000/svg">
<path d="M34.0764 37.9816C35.1811 37.9816 36.0764 37.0864 36.0764 35.9816V10.0316C36.0764 8.9269 35.1811 8.03164 34.0764 8.03164H16.0264C14.9216 8.03164 14.0264 8.9269 14.0264 10.0316V35.9816C14.0264 37.0864 14.9216 37.9816 16.0264 37.9816H34.0764ZM34.0764 39.9816H16.0264C13.8171 39.9816 12.0264 38.1909 12.0264 35.9816V10.0316C12.0264 7.82236 13.8171 6.03164 16.0264 6.03164H34.0764C36.2856 6.03164 38.0764 7.82236 38.0764 10.0316V35.9816C38.0764 38.1909 36.2856 39.9816 34.0764 39.9816ZM21.0824 5.05664H29.0199C29.5722 5.05664 30.0199 4.60894 30.0199 4.05664C30.0199 3.50435 29.5722 3.05664 29.0199 3.05664H21.0824C20.5301 3.05664 20.0824 3.50435 20.0824 4.05664C20.0824 4.60894 20.5301 5.05664 21.0824 5.05664Z" fill="white"/>
<path d="M37.1025 47.9815C39.3117 47.9815 41.1025 46.1907 41.1025 43.9815V6C41.1025 3.79077 39.3117 2 37.1025 2H13C10.7908 2 9 3.79077 9 6V43.9815C9 46.1907 10.7908 47.9815 13 47.9815H37.1025ZM37.1025 49.9815H13C9.68623 49.9815 7 47.2953 7 43.9815V6C7 2.68623 9.68623 0 13 0H37.1025C40.4163 0 43.1025 2.68623 43.1025 6V43.9815C43.1025 47.2953 40.4163 49.9815 37.1025 49.9815Z" fill="white"/>
<path d="M26.0513 43.9814C26.0513 43.4292 25.6035 42.9814 25.0513 42.9814C24.4991 42.9814 24.0513 43.4292 24.0513 43.9814C24.0513 44.5336 24.4991 44.9814 25.0513 44.9814C25.6035 44.9814 26.0513 44.5336 26.0513 43.9814ZM28.0513 43.9814C28.0513 45.6382 26.7081 46.9814 25.0513 46.9814C23.3945 46.9814 22.0513 45.6382 22.0513 43.9814C22.0513 42.3247 23.3945 40.9814 25.0513 40.9814C26.7081 40.9814 28.0513 42.3247 28.0513 43.9814Z" fill="white"/>
</svg>
