<svg width="70" height="105" viewBox="0 0 70 105" fill="none" xmlns="http://www.w3.org/2000/svg">
<rect x="1.5" y="1.5" width="67" height="67" stroke="white" stroke-width="3" stroke-linejoin="round"/>
<line y1="-1.5" x2="29.7918" y2="-1.5" transform="matrix(0.738477 0.674279 0.981605 -0.190922 27.9999 15)" stroke="white" stroke-width="3"/>
<line y1="-1.5" x2="29.7918" y2="-1.5" transform="matrix(0.738477 -0.674279 0.981605 0.190922 27.9999 55)" stroke="white" stroke-width="3"/>
<path d="M3.29403 89.1051V85.7088H3.87784C4.07386 85.5526 4.2571 85.3324 4.42756 85.0483C4.59801 84.7642 4.7429 84.375 4.86222 83.8807C4.98153 83.3864 5.06392 82.7472 5.10938 81.9631L5.33949 78.2727H10.9176V85.7088H11.8892V89.0966H10.3722V87H4.81108V89.1051H3.29403ZM5.71875 85.7088H9.40057V79.598H6.76278L6.62642 81.9631C6.58949 82.5568 6.52983 83.0881 6.44744 83.5568C6.36506 84.0256 6.26136 84.4389 6.13636 84.7969C6.01136 85.152 5.87216 85.456 5.71875 85.7088ZM15.9641 87.1278C15.3249 87.1278 14.771 86.9872 14.3022 86.706C13.8335 86.4247 13.4698 86.0312 13.2113 85.5256C12.9556 85.0199 12.8278 84.429 12.8278 83.7528C12.8278 83.0767 12.9556 82.4844 13.2113 81.9759C13.4698 81.4673 13.8335 81.0724 14.3022 80.7912C14.771 80.5099 15.3249 80.3693 15.9641 80.3693C16.6033 80.3693 17.1573 80.5099 17.6261 80.7912C18.0948 81.0724 18.457 81.4673 18.7127 81.9759C18.9712 82.4844 19.1005 83.0767 19.1005 83.7528C19.1005 84.429 18.9712 85.0199 18.7127 85.5256C18.457 86.0312 18.0948 86.4247 17.6261 86.706C17.1573 86.9872 16.6033 87.1278 15.9641 87.1278ZM15.9727 85.892C16.3192 85.892 16.609 85.7969 16.842 85.6065C17.0749 85.4134 17.2482 85.1548 17.3619 84.831C17.4783 84.5071 17.5366 84.1463 17.5366 83.7486C17.5366 83.348 17.4783 82.9858 17.3619 82.6619C17.2482 82.3352 17.0749 82.0753 16.842 81.8821C16.609 81.6889 16.3192 81.5923 15.9727 81.5923C15.6175 81.5923 15.3221 81.6889 15.0863 81.8821C14.8533 82.0753 14.6786 82.3352 14.5621 82.6619C14.4485 82.9858 14.3917 83.348 14.3917 83.7486C14.3917 84.1463 14.4485 84.5071 14.5621 84.831C14.6786 85.1548 14.8533 85.4134 15.0863 85.6065C15.3221 85.7969 15.6175 85.892 15.9727 85.892ZM27.7159 80.4545V81.7202H24.8949V87H23.3864V80.4545H27.7159ZM30.5668 87.1321C30.152 87.1321 29.7784 87.0582 29.446 86.9105C29.1165 86.7599 28.8551 86.5384 28.6619 86.2457C28.4716 85.9531 28.3764 85.5923 28.3764 85.1634C28.3764 84.794 28.4446 84.4886 28.581 84.2472C28.7173 84.0057 28.9034 83.8125 29.1392 83.6676C29.375 83.5227 29.6406 83.4134 29.9361 83.3395C30.2344 83.2628 30.5426 83.2074 30.8608 83.1733C31.2443 83.1335 31.5554 83.098 31.794 83.0668C32.0327 83.0327 32.206 82.9815 32.3139 82.9134C32.4247 82.8423 32.4801 82.733 32.4801 82.5852V82.5597C32.4801 82.2386 32.3849 81.9901 32.1946 81.8139C32.0043 81.6378 31.7301 81.5497 31.3722 81.5497C30.9943 81.5497 30.6946 81.6321 30.473 81.7969C30.2543 81.9616 30.1065 82.1562 30.0298 82.3807L28.5895 82.1761C28.7031 81.7784 28.8906 81.446 29.152 81.179C29.4134 80.9091 29.733 80.7074 30.1108 80.5739C30.4886 80.4375 30.9063 80.3693 31.3636 80.3693C31.679 80.3693 31.9929 80.4062 32.3054 80.4801C32.6179 80.554 32.9034 80.6761 33.1619 80.8466C33.4205 81.0142 33.6278 81.2429 33.7841 81.5327C33.9432 81.8224 34.0227 82.1847 34.0227 82.6193V87H32.5398V86.1009H32.4886C32.3949 86.2827 32.2628 86.4531 32.0923 86.6122C31.9247 86.7685 31.7131 86.8949 31.4574 86.9915C31.2045 87.0852 30.9077 87.1321 30.5668 87.1321ZM30.9673 85.9986C31.277 85.9986 31.5455 85.9375 31.7727 85.8153C32 85.6903 32.1747 85.5256 32.2969 85.321C32.4219 85.1165 32.4844 84.8935 32.4844 84.652V83.8807C32.4361 83.9205 32.3537 83.9574 32.2372 83.9915C32.1236 84.0256 31.9957 84.0554 31.8537 84.081C31.7116 84.1065 31.571 84.1293 31.4318 84.1491C31.2926 84.169 31.1719 84.1861 31.0696 84.2003C30.8395 84.2315 30.6335 84.2827 30.4517 84.3537C30.2699 84.4247 30.1264 84.5241 30.0213 84.652C29.9162 84.777 29.8636 84.9389 29.8636 85.1378C29.8636 85.4219 29.9673 85.6364 30.1747 85.7812C30.3821 85.9261 30.6463 85.9986 30.9673 85.9986ZM35.1222 87L35.1136 85.7301H35.3395C35.5099 85.7301 35.6534 85.6918 35.7699 85.6151C35.8864 85.5384 35.983 85.4105 36.0597 85.2315C36.1364 85.0497 36.196 84.8054 36.2386 84.4986C36.2813 84.1918 36.3111 83.8097 36.3281 83.3523L36.4432 80.4545H41.2159V87H39.7244V81.7202H37.8452L37.7429 83.8295C37.7173 84.375 37.6563 84.848 37.5597 85.2486C37.4659 85.6463 37.3324 85.9744 37.1591 86.233C36.9886 86.4915 36.7741 86.6847 36.5156 86.8125C36.2571 86.9375 35.9517 87 35.5994 87H35.1222ZM45.6669 87.1278C45.0107 87.1278 44.4439 86.9915 43.9666 86.7188C43.4922 86.4432 43.1271 86.054 42.8714 85.5511C42.6158 85.0455 42.4879 84.4503 42.4879 83.7656C42.4879 83.0923 42.6158 82.5014 42.8714 81.9929C43.13 81.4815 43.4908 81.0838 43.9538 80.7997C44.4169 80.5128 44.9609 80.3693 45.5859 80.3693C45.9893 80.3693 46.37 80.4347 46.728 80.5653C47.0888 80.6932 47.407 80.892 47.6825 81.1619C47.9609 81.4318 48.1797 81.7756 48.3388 82.1932C48.4979 82.608 48.5774 83.1023 48.5774 83.6761V84.1491H43.2124V83.1094H47.0987C47.0959 82.8139 47.032 82.5511 46.907 82.321C46.782 82.0881 46.6072 81.9048 46.3828 81.7713C46.1612 81.6378 45.9027 81.571 45.6072 81.571C45.2919 81.571 45.0149 81.6477 44.7763 81.8011C44.5376 81.9517 44.3516 82.1506 44.218 82.3977C44.0874 82.642 44.0206 82.9105 44.0178 83.2031V84.1108C44.0178 84.4915 44.0874 84.8182 44.2266 85.0909C44.3658 85.3608 44.5604 85.5682 44.8104 85.7131C45.0604 85.8551 45.353 85.9261 45.6882 85.9261C45.9126 85.9261 46.1158 85.8949 46.2976 85.8324C46.4794 85.767 46.6371 85.6719 46.7706 85.5469C46.9041 85.4219 47.005 85.267 47.0732 85.0824L48.5135 85.2443C48.4226 85.625 48.2493 85.9574 47.9936 86.2415C47.7408 86.5227 47.4169 86.7415 47.022 86.8977C46.6271 87.0511 46.1754 87.1278 45.6669 87.1278ZM49.8825 89.4545V80.4545H51.3995V81.5369H51.489C51.5685 81.3778 51.6808 81.2088 51.8256 81.0298C51.9705 80.848 52.1665 80.6932 52.4137 80.5653C52.6609 80.4347 52.9762 80.3693 53.3597 80.3693C53.8654 80.3693 54.3214 80.4986 54.7276 80.7571C55.1367 81.0128 55.4606 81.392 55.6992 81.8949C55.9407 82.3949 56.0614 83.0085 56.0614 83.7358C56.0614 84.4545 55.9435 85.0653 55.7077 85.5682C55.4719 86.071 55.1509 86.4545 54.7447 86.7188C54.3384 86.983 53.8782 87.1151 53.364 87.1151C52.989 87.1151 52.6779 87.0526 52.4308 86.9276C52.1836 86.8026 51.9847 86.652 51.8342 86.4759C51.6864 86.2969 51.5714 86.1278 51.489 85.9688H51.4251V89.4545H49.8825ZM51.3952 83.7273C51.3952 84.1506 51.4549 84.5213 51.5742 84.8395C51.6964 85.1577 51.8711 85.4062 52.0984 85.5852C52.3285 85.7614 52.6069 85.8494 52.9336 85.8494C53.2745 85.8494 53.56 85.7585 53.7901 85.5767C54.0202 85.392 54.1935 85.1406 54.31 84.8224C54.4293 84.5014 54.489 84.1364 54.489 83.7273C54.489 83.321 54.4308 82.9602 54.3143 82.6449C54.1978 82.3295 54.0245 82.0824 53.7944 81.9034C53.5643 81.7244 53.2773 81.6349 52.9336 81.6349C52.604 81.6349 52.3242 81.7216 52.0941 81.8949C51.864 82.0682 51.6893 82.3111 51.57 82.6236C51.4535 82.9361 51.3952 83.304 51.3952 83.7273ZM60.2802 87.1278C59.6239 87.1278 59.0572 86.9915 58.5799 86.7188C58.1055 86.4432 57.7404 86.054 57.4847 85.5511C57.229 85.0455 57.1012 84.4503 57.1012 83.7656C57.1012 83.0923 57.229 82.5014 57.4847 81.9929C57.7433 81.4815 58.104 81.0838 58.5671 80.7997C59.0302 80.5128 59.5742 80.3693 60.1992 80.3693C60.6026 80.3693 60.9833 80.4347 61.3413 80.5653C61.7021 80.6932 62.0202 80.892 62.2958 81.1619C62.5742 81.4318 62.793 81.7756 62.9521 82.1932C63.1112 82.608 63.1907 83.1023 63.1907 83.6761V84.1491H57.8256V83.1094H61.712C61.7092 82.8139 61.6452 82.5511 61.5202 82.321C61.3952 82.0881 61.2205 81.9048 60.9961 81.7713C60.7745 81.6378 60.516 81.571 60.2205 81.571C59.9052 81.571 59.6282 81.6477 59.3896 81.8011C59.1509 81.9517 58.9648 82.1506 58.8313 82.3977C58.7006 82.642 58.6339 82.9105 58.631 83.2031V84.1108C58.631 84.4915 58.7006 84.8182 58.8398 85.0909C58.979 85.3608 59.1737 85.5682 59.4237 85.7131C59.6737 85.8551 59.9663 85.9261 60.3015 85.9261C60.5259 85.9261 60.729 85.8949 60.9109 85.8324C61.0927 85.767 61.2504 85.6719 61.3839 85.5469C61.5174 85.4219 61.6183 85.267 61.6864 85.0824L63.1268 85.2443C63.0359 85.625 62.8626 85.9574 62.6069 86.2415C62.354 86.5227 62.0302 86.7415 61.6353 86.8977C61.2404 87.0511 60.7887 87.1278 60.2802 87.1278ZM64.4957 87V80.4545H66.0384V87H64.4957ZM63.9972 79.4915C63.7727 79.4915 63.5795 79.4119 63.4176 79.2528C63.2528 79.0937 63.1705 78.9062 63.1705 78.6903C63.1705 78.4631 63.2528 78.2727 63.4176 78.1193C63.5795 77.9631 63.7727 77.8849 63.9972 77.8849C64.2273 77.8849 64.4205 77.9631 64.5767 78.1193C64.7358 78.2727 64.8153 78.4631 64.8153 78.6903C64.8153 78.9062 64.7358 79.0937 64.5767 79.2528C64.4205 79.4119 64.2273 79.4915 63.9972 79.4915ZM66.554 79.4915C66.3295 79.4915 66.1349 79.4119 65.9702 79.2528C65.8082 79.0937 65.7273 78.9062 65.7273 78.6903C65.7273 78.4631 65.8082 78.2727 65.9702 78.1193C66.1349 77.9631 66.3295 77.8849 66.554 77.8849C66.7841 77.8849 66.9773 77.9631 67.1335 78.1193C67.2926 78.2727 67.3722 78.4631 67.3722 78.6903C67.3722 78.9062 67.2926 79.0937 67.1335 79.2528C66.9773 79.4119 66.7841 79.4915 66.554 79.4915ZM7.55966 100.206L9.50284 95.4545H10.7472L8.10085 102H7.02273L4.43608 95.4545H5.66761L7.55966 100.206ZM5.27983 95.4545V102H3.79261V95.4545H5.27983ZM9.90341 102V95.4545H11.3778V102H9.90341ZM15.831 102.128C15.1747 102.128 14.608 101.991 14.1307 101.719C13.6563 101.443 13.2912 101.054 13.0355 100.551C12.7798 100.045 12.652 99.4503 12.652 98.7656C12.652 98.0923 12.7798 97.5014 13.0355 96.9929C13.294 96.4815 13.6548 96.0838 14.1179 95.7997C14.581 95.5128 15.125 95.3693 15.75 95.3693C16.1534 95.3693 16.5341 95.4347 16.892 95.5653C17.2528 95.6932 17.571 95.892 17.8466 96.1619C18.125 96.4318 18.3438 96.7756 18.5028 97.1932C18.6619 97.608 18.7415 98.1023 18.7415 98.6761V99.1491H13.3764V98.1094H17.2628C17.2599 97.8139 17.196 97.5511 17.071 97.321C16.946 97.0881 16.7713 96.9048 16.5469 96.7713C16.3253 96.6378 16.0668 96.571 15.7713 96.571C15.456 96.571 15.179 96.6477 14.9403 96.8011C14.7017 96.9517 14.5156 97.1506 14.3821 97.3977C14.2514 97.642 14.1847 97.9105 14.1818 98.2031V99.1108C14.1818 99.4915 14.2514 99.8182 14.3906 100.091C14.5298 100.361 14.7244 100.568 14.9744 100.713C15.2244 100.855 15.517 100.926 15.8523 100.926C16.0767 100.926 16.2798 100.895 16.4616 100.832C16.6435 100.767 16.8011 100.672 16.9347 100.547C17.0682 100.422 17.169 100.267 17.2372 100.082L18.6776 100.244C18.5866 100.625 18.4134 100.957 18.1577 101.241C17.9048 101.523 17.581 101.741 17.1861 101.898C16.7912 102.051 16.3395 102.128 15.831 102.128ZM25.2923 93.0341L25.8292 94.0312C25.6388 94.196 25.4258 94.3153 25.19 94.3892C24.9542 94.4631 24.6772 94.5114 24.359 94.5341C24.0437 94.554 23.6687 94.5682 23.234 94.5767C22.7454 94.5881 22.3462 94.6804 22.0366 94.8537C21.7269 95.027 21.4897 95.2898 21.3249 95.642C21.1602 95.9915 21.0522 96.4375 21.0011 96.9801H21.0735C21.2781 96.5795 21.565 96.2741 21.9343 96.0639C22.3036 95.8537 22.7369 95.7486 23.234 95.7486C23.7766 95.7486 24.2553 95.8707 24.6701 96.1151C25.0877 96.3565 25.413 96.7074 25.646 97.1676C25.8817 97.6278 25.9996 98.1847 25.9996 98.8381C25.9996 99.5114 25.8732 100.095 25.6204 100.589C25.3675 101.081 25.0082 101.46 24.5423 101.727C24.0792 101.994 23.5295 102.128 22.8931 102.128C22.2596 102.128 21.7085 101.99 21.2397 101.714C20.7738 101.436 20.413 101.026 20.1573 100.483C19.9045 99.9375 19.7781 99.2656 19.7781 98.4673V97.8793C19.7781 96.3395 20.065 95.1903 20.6388 94.4318C21.2127 93.6733 22.0636 93.2869 23.1914 93.2727C23.5266 93.267 23.8263 93.2656 24.0906 93.2685C24.3576 93.2713 24.5906 93.2585 24.7894 93.2301C24.9883 93.2017 25.1559 93.1364 25.2923 93.0341ZM22.9016 100.892C23.217 100.892 23.4897 100.811 23.7198 100.649C23.9499 100.484 24.1261 100.251 24.2482 99.9503C24.3732 99.6491 24.4357 99.2926 24.4357 98.8807C24.4357 98.4744 24.3732 98.1293 24.2482 97.8452C24.1232 97.5582 23.9457 97.3395 23.7156 97.1889C23.4854 97.0384 23.2113 96.9631 22.8931 96.9631C22.6545 96.9631 22.44 97.0057 22.2496 97.0909C22.0593 97.1761 21.8974 97.3011 21.7638 97.4659C21.6303 97.6307 21.5281 97.831 21.457 98.0668C21.386 98.3026 21.3477 98.5739 21.342 98.8807C21.342 99.4972 21.4812 99.9872 21.7596 100.351C22.038 100.712 22.4187 100.892 22.9016 100.892ZM26.8604 102L26.8519 100.73H27.0778C27.2482 100.73 27.3917 100.692 27.5082 100.615C27.6246 100.538 27.7212 100.411 27.7979 100.232C27.8746 100.05 27.9343 99.8054 27.9769 99.4986C28.0195 99.1918 28.0494 98.8097 28.0664 98.3523L28.1815 95.4545H32.9542V102H31.4627V96.7202H29.5835L29.4812 98.8295C29.4556 99.375 29.3945 99.848 29.2979 100.249C29.2042 100.646 29.0707 100.974 28.8974 101.233C28.7269 101.491 28.5124 101.685 28.2539 101.812C27.9954 101.938 27.69 102 27.3377 102H26.8604ZM34.5075 102V95.4545H36.0501V102H34.5075ZM35.283 94.5256C35.0387 94.5256 34.8285 94.4446 34.6523 94.2827C34.4762 94.1179 34.3881 93.9205 34.3881 93.6903C34.3881 93.4574 34.4762 93.2599 34.6523 93.098C34.8285 92.9332 35.0387 92.8509 35.283 92.8509C35.5302 92.8509 35.7404 92.9332 35.9137 93.098C36.0898 93.2599 36.1779 93.4574 36.1779 93.6903C36.1779 93.9205 36.0898 94.1179 35.9137 94.2827C35.7404 94.4446 35.5302 94.5256 35.283 94.5256ZM37.6364 102V95.4545H40.3849C41.1605 95.4545 41.7727 95.6094 42.2216 95.919C42.6733 96.2287 42.8991 96.6605 42.8991 97.2145C42.8991 97.581 42.7713 97.8807 42.5156 98.1136C42.2628 98.3437 41.9176 98.4986 41.4801 98.5781C41.8239 98.6065 42.125 98.6932 42.3835 98.8381C42.6449 98.983 42.8494 99.1733 42.9972 99.4091C43.1449 99.6449 43.2188 99.9162 43.2188 100.223C43.2188 100.584 43.1236 100.898 42.9332 101.165C42.7457 101.429 42.4716 101.635 42.1108 101.783C41.7528 101.928 41.3182 102 40.8068 102H37.6364ZM39.081 100.786H40.8068C41.0909 100.786 41.3139 100.719 41.4759 100.585C41.6378 100.449 41.7188 100.264 41.7188 100.031C41.7188 99.7614 41.6378 99.5497 41.4759 99.3963C41.3139 99.2401 41.0909 99.1619 40.8068 99.1619H39.081V100.786ZM39.081 98.1648H40.4148C40.625 98.1648 40.8054 98.1349 40.956 98.0753C41.1065 98.0128 41.2216 97.9261 41.3011 97.8153C41.3807 97.7017 41.4205 97.5668 41.4205 97.4105C41.4205 97.1861 41.3281 97.0099 41.1435 96.8821C40.9616 96.7543 40.7088 96.6903 40.3849 96.6903H39.081V98.1648Z" fill="white"/>
</svg>
