<svg width="70" height="105" viewBox="0 0 70 105" fill="none" xmlns="http://www.w3.org/2000/svg">
<rect x="1.5" y="1.5" width="67" height="67" stroke="white" stroke-width="3" stroke-linejoin="round"/>
<line y1="-1.5" x2="29.7918" y2="-1.5" transform="matrix(-0.738477 0.674279 -0.981605 -0.190922 43.0005 15)" stroke="white" stroke-width="3"/>
<line y1="-1.5" x2="29.7918" y2="-1.5" transform="matrix(-0.738477 -0.674279 -0.981605 0.190922 43.0005 55)" stroke="white" stroke-width="3"/>
<path d="M3.8608 87V78.2727H5.44176V81.9673H9.4858V78.2727H11.071V87H9.4858V83.2926H5.44176V87H3.8608ZM14.6058 87.1321C14.1911 87.1321 13.8175 87.0582 13.4851 86.9105C13.1555 86.7599 12.8942 86.5384 12.701 86.2457C12.5107 85.9531 12.4155 85.5923 12.4155 85.1634C12.4155 84.794 12.4837 84.4886 12.62 84.2472C12.7564 84.0057 12.9425 83.8125 13.1783 83.6676C13.4141 83.5227 13.6797 83.4134 13.9751 83.3395C14.2734 83.2628 14.5817 83.2074 14.8999 83.1733C15.2834 83.1335 15.5945 83.098 15.8331 83.0668C16.0717 83.0327 16.245 82.9815 16.353 82.9134C16.4638 82.8423 16.5192 82.733 16.5192 82.5852V82.5597C16.5192 82.2386 16.424 81.9901 16.2337 81.8139C16.0433 81.6378 15.7692 81.5497 15.4112 81.5497C15.0334 81.5497 14.7337 81.6321 14.5121 81.7969C14.2933 81.9616 14.1456 82.1562 14.0689 82.3807L12.6286 82.1761C12.7422 81.7784 12.9297 81.446 13.1911 81.179C13.4524 80.9091 13.772 80.7074 14.1499 80.5739C14.5277 80.4375 14.9453 80.3693 15.4027 80.3693C15.718 80.3693 16.032 80.4062 16.3445 80.4801C16.657 80.554 16.9425 80.6761 17.201 80.8466C17.4595 81.0142 17.6669 81.2429 17.8232 81.5327C17.9822 81.8224 18.0618 82.1847 18.0618 82.6193V87H16.5788V86.1009H16.5277C16.4339 86.2827 16.3018 86.4531 16.1314 86.6122C15.9638 86.7685 15.7521 86.8949 15.4964 86.9915C15.2436 87.0852 14.9467 87.1321 14.6058 87.1321ZM15.0064 85.9986C15.3161 85.9986 15.5845 85.9375 15.8118 85.8153C16.0391 85.6903 16.2138 85.5256 16.3359 85.321C16.4609 85.1165 16.5234 84.8935 16.5234 84.652V83.8807C16.4751 83.9205 16.3928 83.9574 16.2763 83.9915C16.1626 84.0256 16.0348 84.0554 15.8928 84.081C15.7507 84.1065 15.6101 84.1293 15.4709 84.1491C15.3317 84.169 15.2109 84.1861 15.1087 84.2003C14.8786 84.2315 14.6726 84.2827 14.4908 84.3537C14.3089 84.4247 14.1655 84.5241 14.0604 84.652C13.9553 84.777 13.9027 84.9389 13.9027 85.1378C13.9027 85.4219 14.0064 85.6364 14.2138 85.7812C14.4212 85.9261 14.6854 85.9986 15.0064 85.9986ZM19.2507 85.206H20.7805C20.7947 85.4503 20.9041 85.6392 21.1087 85.7727C21.3132 85.9062 21.5788 85.973 21.9055 85.973C22.2379 85.973 22.5178 85.9006 22.745 85.7557C22.9751 85.608 23.0902 85.3849 23.0902 85.0866C23.0902 84.9105 23.0462 84.7557 22.9581 84.6222C22.87 84.4858 22.7464 84.3807 22.5874 84.3068C22.4283 84.233 22.2408 84.196 22.0249 84.196H21.0234V83.1009H22.0249C22.3459 83.1009 22.5888 83.027 22.7536 82.8793C22.9212 82.7315 23.005 82.5455 23.005 82.321C23.005 82.0795 22.9169 81.8835 22.7408 81.733C22.5675 81.5824 22.3274 81.5071 22.0206 81.5071C21.7138 81.5071 21.4581 81.5767 21.2536 81.7159C21.0518 81.8551 20.9467 82.0341 20.9382 82.2528H19.4169C19.4226 81.8722 19.5362 81.5412 19.7578 81.2599C19.9822 80.9787 20.2834 80.7599 20.6612 80.6037C21.0419 80.4474 21.4709 80.3693 21.9482 80.3693C22.4595 80.3693 22.9013 80.446 23.2734 80.5994C23.6456 80.7528 23.9325 80.9673 24.1342 81.2429C24.3359 81.5156 24.4368 81.8366 24.4368 82.206C24.4368 82.5611 24.326 82.8551 24.1044 83.0881C23.8828 83.3182 23.5845 83.483 23.2095 83.5824V83.6506C23.468 83.6648 23.701 83.7386 23.9084 83.8722C24.1158 84.0028 24.2805 84.1804 24.4027 84.4048C24.5249 84.6293 24.5859 84.8892 24.5859 85.1847C24.5859 85.5852 24.4709 85.9318 24.2408 86.2244C24.0107 86.5142 23.6939 86.7372 23.2905 86.8935C22.8899 87.0497 22.4311 87.1278 21.9141 87.1278C21.4112 87.1278 20.9609 87.0526 20.5632 86.902C20.1683 86.7486 19.8544 86.5284 19.6214 86.2415C19.3885 85.9545 19.2649 85.6094 19.2507 85.206ZM27.6839 87.1321C27.2692 87.1321 26.8956 87.0582 26.5632 86.9105C26.2337 86.7599 25.9723 86.5384 25.7791 86.2457C25.5888 85.9531 25.4936 85.5923 25.4936 85.1634C25.4936 84.794 25.5618 84.4886 25.6982 84.2472C25.8345 84.0057 26.0206 83.8125 26.2564 83.6676C26.4922 83.5227 26.7578 83.4134 27.0533 83.3395C27.3516 83.2628 27.6598 83.2074 27.978 83.1733C28.3615 83.1335 28.6726 83.098 28.9112 83.0668C29.1499 83.0327 29.3232 82.9815 29.4311 82.9134C29.5419 82.8423 29.5973 82.733 29.5973 82.5852V82.5597C29.5973 82.2386 29.5021 81.9901 29.3118 81.8139C29.1214 81.6378 28.8473 81.5497 28.4893 81.5497C28.1115 81.5497 27.8118 81.6321 27.5902 81.7969C27.3714 81.9616 27.2237 82.1562 27.147 82.3807L25.7067 82.1761C25.8203 81.7784 26.0078 81.446 26.2692 81.179C26.5305 80.9091 26.8501 80.7074 27.228 80.5739C27.6058 80.4375 28.0234 80.3693 28.4808 80.3693C28.7962 80.3693 29.1101 80.4062 29.4226 80.4801C29.7351 80.554 30.0206 80.6761 30.2791 80.8466C30.5376 81.0142 30.745 81.2429 30.9013 81.5327C31.0604 81.8224 31.1399 82.1847 31.1399 82.6193V87H29.657V86.1009H29.6058C29.5121 86.2827 29.38 86.4531 29.2095 86.6122C29.0419 86.7685 28.8303 86.8949 28.5746 86.9915C28.3217 87.0852 28.0249 87.1321 27.6839 87.1321ZM28.0845 85.9986C28.3942 85.9986 28.6626 85.9375 28.8899 85.8153C29.1172 85.6903 29.2919 85.5256 29.4141 85.321C29.5391 85.1165 29.6016 84.8935 29.6016 84.652V83.8807C29.5533 83.9205 29.4709 83.9574 29.3544 83.9915C29.2408 84.0256 29.1129 84.0554 28.9709 84.081C28.8288 84.1065 28.6882 84.1293 28.549 84.1491C28.4098 84.169 28.2891 84.1861 28.1868 84.2003C27.9567 84.2315 27.7507 84.2827 27.5689 84.3537C27.3871 84.4247 27.2436 84.5241 27.1385 84.652C27.0334 84.777 26.9808 84.9389 26.9808 85.1378C26.9808 85.4219 27.0845 85.6364 27.2919 85.7812C27.4993 85.9261 27.7635 85.9986 28.0845 85.9986ZM32.1115 88.9006V85.7301H32.6314C32.7706 85.6222 32.8871 85.4759 32.9808 85.2912C33.0746 85.1037 33.1513 84.8835 33.2109 84.6307C33.2734 84.375 33.3246 84.0895 33.3643 83.7741C33.4041 83.456 33.4396 83.1136 33.4709 82.7472L33.6584 80.4545H38.3885V85.7301H39.4027V88.9006H37.9112V87H33.6286V88.9006H32.1115ZM34.2166 85.7301H36.9141V81.6989H34.9964L34.8942 82.7472C34.8374 83.4403 34.7621 84.0341 34.6683 84.5284C34.5746 85.0227 34.424 85.4233 34.2166 85.7301ZM42.9513 88.9006V85.7301H43.4712C43.6104 85.6222 43.7269 85.4759 43.8207 85.2912C43.9144 85.1037 43.9911 84.8835 44.0508 84.6307C44.1133 84.375 44.1644 84.0895 44.2042 83.7741C44.244 83.456 44.2795 83.1136 44.3107 82.7472L44.4982 80.4545H49.2283V85.7301H50.2425V88.9006H48.7511V87H44.4684V88.9006H42.9513ZM45.0565 85.7301H47.7539V81.6989H45.8363L45.734 82.7472C45.6772 83.4403 45.6019 84.0341 45.5082 84.5284C45.4144 85.0227 45.2638 85.4233 45.0565 85.7301ZM54.2493 87.1278C53.6101 87.1278 53.0561 86.9872 52.5874 86.706C52.1186 86.4247 51.755 86.0312 51.4964 85.5256C51.2408 85.0199 51.1129 84.429 51.1129 83.7528C51.1129 83.0767 51.2408 82.4844 51.4964 81.9759C51.755 81.4673 52.1186 81.0724 52.5874 80.7912C53.0561 80.5099 53.6101 80.3693 54.2493 80.3693C54.8885 80.3693 55.4425 80.5099 55.9112 80.7912C56.38 81.0724 56.7422 81.4673 56.9979 81.9759C57.2564 82.4844 57.3857 83.0767 57.3857 83.7528C57.3857 84.429 57.2564 85.0199 56.9979 85.5256C56.7422 86.0312 56.38 86.4247 55.9112 86.706C55.4425 86.9872 54.8885 87.1278 54.2493 87.1278ZM54.2578 85.892C54.6044 85.892 54.8942 85.7969 55.1271 85.6065C55.3601 85.4134 55.5334 85.1548 55.647 84.831C55.7635 84.5071 55.8217 84.1463 55.8217 83.7486C55.8217 83.348 55.7635 82.9858 55.647 82.6619C55.5334 82.3352 55.3601 82.0753 55.1271 81.8821C54.8942 81.6889 54.6044 81.5923 54.2578 81.5923C53.9027 81.5923 53.6072 81.6889 53.3714 81.8821C53.1385 82.0753 52.9638 82.3352 52.8473 82.6619C52.7337 82.9858 52.6768 83.348 52.6768 83.7486C52.6768 84.1463 52.7337 84.5071 52.8473 84.831C52.9638 85.1548 53.1385 85.4134 53.3714 85.6065C53.6072 85.7969 53.9027 85.892 54.2578 85.892ZM8.12216 95.4545V96.7202H5.30114V102H3.79261V95.4545H8.12216ZM10.973 102.132C10.5582 102.132 10.1847 102.058 9.85227 101.911C9.52273 101.76 9.26136 101.538 9.06818 101.246C8.87784 100.953 8.78267 100.592 8.78267 100.163C8.78267 99.794 8.85085 99.4886 8.98722 99.2472C9.12358 99.0057 9.30966 98.8125 9.54545 98.6676C9.78125 98.5227 10.0469 98.4134 10.3423 98.3395C10.6406 98.2628 10.9489 98.2074 11.267 98.1733C11.6506 98.1335 11.9616 98.098 12.2003 98.0668C12.4389 98.0327 12.6122 97.9815 12.7202 97.9134C12.831 97.8423 12.8864 97.733 12.8864 97.5852V97.5597C12.8864 97.2386 12.7912 96.9901 12.6009 96.8139C12.4105 96.6378 12.1364 96.5497 11.7784 96.5497C11.4006 96.5497 11.1009 96.6321 10.8793 96.7969C10.6605 96.9616 10.5128 97.1562 10.4361 97.3807L8.99574 97.1761C9.10938 96.7784 9.29688 96.446 9.55824 96.179C9.8196 95.9091 10.1392 95.7074 10.517 95.5739C10.8949 95.4375 11.3125 95.3693 11.7699 95.3693C12.0852 95.3693 12.3991 95.4062 12.7116 95.4801C13.0241 95.554 13.3097 95.6761 13.5682 95.8466C13.8267 96.0142 14.0341 96.2429 14.1903 96.5327C14.3494 96.8224 14.429 97.1847 14.429 97.6193V102H12.946V101.101H12.8949C12.8011 101.283 12.669 101.453 12.4986 101.612C12.331 101.768 12.1193 101.895 11.8636 101.991C11.6108 102.085 11.3139 102.132 10.973 102.132ZM11.3736 100.999C11.6832 100.999 11.9517 100.937 12.179 100.815C12.4063 100.69 12.581 100.526 12.7031 100.321C12.8281 100.116 12.8906 99.8935 12.8906 99.652V98.8807C12.8423 98.9205 12.7599 98.9574 12.6435 98.9915C12.5298 99.0256 12.402 99.0554 12.2599 99.081C12.1179 99.1065 11.9773 99.1293 11.8381 99.1491C11.6989 99.169 11.5781 99.1861 11.4759 99.2003C11.2457 99.2315 11.0398 99.2827 10.858 99.3537C10.6761 99.4247 10.5327 99.5241 10.4276 99.652C10.3224 99.777 10.2699 99.9389 10.2699 100.138C10.2699 100.422 10.3736 100.636 10.581 100.781C10.7884 100.926 11.0526 100.999 11.3736 100.999ZM15.5284 102L15.5199 100.73H15.7457C15.9162 100.73 16.0597 100.692 16.1761 100.615C16.2926 100.538 16.3892 100.411 16.4659 100.232C16.5426 100.05 16.6023 99.8054 16.6449 99.4986C16.6875 99.1918 16.7173 98.8097 16.7344 98.3523L16.8494 95.4545H21.6222V102H20.1307V96.7202H18.2514L18.1491 98.8295C18.1236 99.375 18.0625 99.848 17.9659 100.249C17.8722 100.646 17.7386 100.974 17.5653 101.233C17.3949 101.491 17.1804 101.685 16.9219 101.812C16.6634 101.938 16.358 102 16.0057 102H15.5284ZM26.0732 102.128C25.4169 102.128 24.8501 101.991 24.3729 101.719C23.8984 101.443 23.5334 101.054 23.2777 100.551C23.022 100.045 22.8942 99.4503 22.8942 98.7656C22.8942 98.0923 23.022 97.5014 23.2777 96.9929C23.5362 96.4815 23.897 96.0838 24.3601 95.7997C24.8232 95.5128 25.3672 95.3693 25.9922 95.3693C26.3956 95.3693 26.7763 95.4347 27.1342 95.5653C27.495 95.6932 27.8132 95.892 28.0888 96.1619C28.3672 96.4318 28.5859 96.7756 28.745 97.1932C28.9041 97.608 28.9837 98.1023 28.9837 98.6761V99.1491H23.6186V98.1094H27.505C27.5021 97.8139 27.4382 97.5511 27.3132 97.321C27.1882 97.0881 27.0135 96.9048 26.7891 96.7713C26.5675 96.6378 26.3089 96.571 26.0135 96.571C25.6982 96.571 25.4212 96.6477 25.1825 96.8011C24.9439 96.9517 24.7578 97.1506 24.6243 97.3977C24.4936 97.642 24.4268 97.9105 24.424 98.2031V99.1108C24.424 99.4915 24.4936 99.8182 24.6328 100.091C24.772 100.361 24.9666 100.568 25.2166 100.713C25.4666 100.855 25.7592 100.926 26.0945 100.926C26.3189 100.926 26.522 100.895 26.7038 100.832C26.8857 100.767 27.0433 100.672 27.1768 100.547C27.3104 100.422 27.4112 100.267 27.4794 100.082L28.9197 100.244C28.8288 100.625 28.6555 100.957 28.3999 101.241C28.147 101.523 27.8232 101.741 27.4283 101.898C27.0334 102.051 26.5817 102.128 26.0732 102.128ZM30.2887 104.455V95.4545H31.8058V96.5369H31.8952C31.9748 96.3778 32.087 96.2088 32.2319 96.0298C32.3768 95.848 32.5728 95.6932 32.82 95.5653C33.0671 95.4347 33.3825 95.3693 33.766 95.3693C34.2717 95.3693 34.7276 95.4986 35.1339 95.7571C35.543 96.0128 35.8668 96.392 36.1055 96.8949C36.3469 97.3949 36.4677 98.0085 36.4677 98.7358C36.4677 99.4545 36.3498 100.065 36.114 100.568C35.8782 101.071 35.5572 101.455 35.1509 101.719C34.7447 101.983 34.2844 102.115 33.7702 102.115C33.3952 102.115 33.0842 102.053 32.837 101.928C32.5898 101.803 32.391 101.652 32.2404 101.476C32.0927 101.297 31.9776 101.128 31.8952 100.969H31.8313V104.455H30.2887ZM31.8015 98.7273C31.8015 99.1506 31.8612 99.5213 31.9805 99.8395C32.1026 100.158 32.2773 100.406 32.5046 100.585C32.7347 100.761 33.0131 100.849 33.3398 100.849C33.6808 100.849 33.9663 100.759 34.1964 100.577C34.4265 100.392 34.5998 100.141 34.7163 99.8224C34.8356 99.5014 34.8952 99.1364 34.8952 98.7273C34.8952 98.321 34.837 97.9602 34.7205 97.6449C34.604 97.3295 34.4308 97.0824 34.2006 96.9034C33.9705 96.7244 33.6836 96.6349 33.3398 96.6349C33.0103 96.6349 32.7305 96.7216 32.5004 96.8949C32.2702 97.0682 32.0955 97.3111 31.9762 97.6236C31.8597 97.9361 31.8015 98.304 31.8015 98.7273ZM40.6864 102.128C40.0302 102.128 39.4634 101.991 38.9862 101.719C38.5117 101.443 38.1467 101.054 37.891 100.551C37.6353 100.045 37.5075 99.4503 37.5075 98.7656C37.5075 98.0923 37.6353 97.5014 37.891 96.9929C38.1495 96.4815 38.5103 96.0838 38.9734 95.7997C39.4364 95.5128 39.9805 95.3693 40.6055 95.3693C41.0089 95.3693 41.3896 95.4347 41.7475 95.5653C42.1083 95.6932 42.4265 95.892 42.7021 96.1619C42.9805 96.4318 43.1992 96.7756 43.3583 97.1932C43.5174 97.608 43.5969 98.1023 43.5969 98.6761V99.1491H38.2319V98.1094H42.1183C42.1154 97.8139 42.0515 97.5511 41.9265 97.321C41.8015 97.0881 41.6268 96.9048 41.4023 96.7713C41.1808 96.6378 40.9222 96.571 40.6268 96.571C40.3114 96.571 40.0344 96.6477 39.7958 96.8011C39.5572 96.9517 39.3711 97.1506 39.2376 97.3977C39.1069 97.642 39.0401 97.9105 39.0373 98.2031V99.1108C39.0373 99.4915 39.1069 99.8182 39.2461 100.091C39.3853 100.361 39.5799 100.568 39.8299 100.713C40.0799 100.855 40.3725 100.926 40.7077 100.926C40.9322 100.926 41.1353 100.895 41.3171 100.832C41.4989 100.767 41.6566 100.672 41.7901 100.547C41.9237 100.422 42.0245 100.267 42.0927 100.082L43.533 100.244C43.4421 100.625 43.2688 100.957 43.0131 101.241C42.7603 101.523 42.4364 101.741 42.0415 101.898C41.6467 102.051 41.195 102.128 40.6864 102.128ZM44.902 102V95.4545H46.4446V102H44.902ZM44.4034 94.4915C44.179 94.4915 43.9858 94.4119 43.8239 94.2528C43.6591 94.0937 43.5767 93.9062 43.5767 93.6903C43.5767 93.4631 43.6591 93.2727 43.8239 93.1193C43.9858 92.9631 44.179 92.8849 44.4034 92.8849C44.6335 92.8849 44.8267 92.9631 44.983 93.1193C45.142 93.2727 45.2216 93.4631 45.2216 93.6903C45.2216 93.9062 45.142 94.0937 44.983 94.2528C44.8267 94.4119 44.6335 94.4915 44.4034 94.4915ZM46.9602 94.4915C46.7358 94.4915 46.5412 94.4119 46.3764 94.2528C46.2145 94.0937 46.1335 93.9062 46.1335 93.6903C46.1335 93.4631 46.2145 93.2727 46.3764 93.1193C46.5412 92.9631 46.7358 92.8849 46.9602 92.8849C47.1903 92.8849 47.3835 92.9631 47.5398 93.1193C47.6989 93.2727 47.7784 93.4631 47.7784 93.6903C47.7784 93.9062 47.6989 94.0937 47.5398 94.2528C47.3835 94.4119 47.1903 94.4915 46.9602 94.4915Z" fill="white"/>
</svg>
